<?xml version="1.0" standalone="no"?>
<!DOCTYPE svg PUBLIC "-//W3C//DTD SVG 20010904//EN"
 "http://www.w3.org/TR/2001/REC-SVG-20010904/DTD/svg10.dtd">
<svg version="1.0" xmlns="http://www.w3.org/2000/svg"
 width="400.000000pt" height="400.000000pt" viewBox="0 0 400.000000 400.000000"
 preserveAspectRatio="xMidYMid meet">
<metadata>
Created by potrace 1.14, written by Peter Selinger 2001-2017
</metadata>
<g transform="translate(0.000000,400.000000) scale(0.100000,-0.100000)"
fill="#000000" stroke="none">
<path d="M2245 3985 c-41 -21 -76 -76 -82 -129 -9 -75 12 -135 78 -222 103
-136 107 -149 114 -369 6 -173 -8 -252 -55 -325 -53 -81 -119 -112 -235 -109
-109 3 -177 39 -191 103 -10 46 -7 152 6 190 9 28 21 38 75 61 77 33 144 96
181 171 21 44 26 67 25 121 -2 119 -68 181 -179 170 -90 -9 -132 -64 -132
-170 0 -98 2 -97 -190 -102 -155 -4 -237 -10 -286 -19 -12 -3 -39 -7 -60 -11
-61 -9 -174 -45 -224 -70 -104 -53 -214 -186 -261 -315 -19 -54 -23 -85 -23
-180 -1 -109 2 -124 53 -305 60 -209 68 -284 44 -390 -25 -112 -163 -357 -279
-497 -100 -121 -118 -161 -99 -218 21 -66 89 -88 151 -49 47 29 143 136 212
238 89 129 220 399 236 486 35 181 30 229 -45 491 -48 170 -57 228 -47 307 25
191 202 292 518 298 106 2 95 17 97 -140 1 -115 5 -147 21 -183 43 -96 142
-170 261 -198 74 -17 221 -15 305 4 235 55 334 226 351 611 2 44 4 84 4 88 2
15 76 -43 149 -116 145 -142 204 -262 204 -408 -1 -98 -5 -119 -69 -314 -63
-194 -70 -224 -72 -319 -4 -144 29 -269 119 -461 60 -129 111 -211 189 -308
66 -82 93 -104 126 -107 48 -5 69 2 101 34 57 57 45 106 -60 231 -47 56 -86
118 -131 210 -87 179 -106 238 -112 365 -6 125 4 175 85 395 45 125 55 164 59
235 9 149 -36 291 -138 442 -66 96 -258 282 -397 383 -173 124 -167 117 -167
217 0 95 -18 137 -75 175 -39 27 -109 30 -155 8z"/>
<path d="M1279 2986 c-48 -24 -64 -62 -64 -149 1 -128 23 -181 162 -394 117
-180 179 -302 200 -397 10 -42 10 -246 0 -326 -9 -76 -14 -109 -33 -210 -25
-136 -17 -192 35 -223 58 -34 102 -25 141 27 49 66 84 290 85 541 0 172 -8
243 -41 346 -32 101 -64 161 -174 325 -113 169 -124 191 -145 299 -18 92 -33
133 -57 153 -20 16 -84 21 -109 8z"/>
<path d="M2665 2838 c-23 -24 -72 -81 -109 -127 -37 -46 -95 -115 -129 -153
-82 -93 -118 -144 -171 -247 -120 -234 -145 -351 -151 -710 -4 -245 2 -284 52
-316 29 -20 81 -22 112 -6 46 25 54 62 56 271 2 191 9 265 41 417 25 122 69
214 166 347 42 58 200 250 219 266 18 16 88 120 99 147 29 75 -23 153 -102
153 -34 0 -47 -7 -83 -42z"/>
<path d="M30 1280 c-13 -8 -15 -86 -15 -568 l0 -560 68 -9 c37 -5 68 -7 68 -4
1 3 3 97 4 209 2 112 5 206 8 208 3 3 11 -5 18 -18 7 -12 63 -100 126 -195
114 -173 178 -252 207 -254 34 -3 42 -2 67 8 31 13 94 83 202 225 45 59 83
105 85 103 2 -2 6 -81 8 -177 3 -95 6 -178 8 -184 3 -6 30 -14 63 -18 32 -3
72 -8 88 -11 100 -15 188 -24 195 -20 10 6 13 906 2 922 -4 7 -23 19 -42 26
-69 28 -125 -10 -272 -181 -46 -53 -88 -103 -95 -110 -7 -7 -29 -34 -50 -60
-21 -26 -46 -56 -56 -67 -10 -11 -35 -41 -55 -67 -20 -27 -39 -45 -43 -40 -5
5 -310 529 -353 607 -93 167 -146 235 -181 235 -7 0 -19 2 -27 5 -7 3 -20 1
-28 -5z"/>
<path d="M3649 1181 c-179 -60 -343 -120 -365 -134 -87 -55 -183 -191 -213
-304 -26 -97 -33 -250 -16 -354 23 -135 115 -271 202 -300 33 -11 216 -8 278
4 11 3 47 8 80 11 33 4 71 9 85 11 34 5 115 15 170 22 45 5 79 9 92 12 4 0 14
8 22 17 19 18 23 168 6 179 -9 5 -50 -1 -250 -39 -14 -3 -49 -9 -79 -15 -123
-25 -170 -6 -190 76 -13 50 -17 407 -5 472 11 61 31 88 86 115 28 14 58 26 65
26 7 0 21 4 31 9 9 5 91 34 182 63 l165 53 0 89 c0 51 -4 90 -10 92 -5 2 -156
-46 -336 -105z"/>
<path d="M3009 983 c-23 -20 -69 -103 -171 -311 l-140 -284 -25 43 c-27 48
-47 84 -148 269 -38 69 -82 145 -99 168 -31 44 -31 44 -83 39 -28 -3 -56 -8
-61 -11 -10 -6 -74 -114 -208 -349 -44 -75 -83 -138 -88 -140 -8 -2 -19 16
-156 263 -45 80 -86 154 -93 165 -22 37 -57 64 -90 69 -47 8 -175 25 -232 31
-27 3 -63 8 -80 10 -66 10 -65 -4 9 -150 104 -205 397 -721 432 -760 31 -35
46 -37 106 -19 9 3 56 73 105 157 48 84 92 160 98 169 49 85 140 228 144 227
3 0 46 -82 96 -182 125 -255 184 -354 220 -367 28 -10 77 6 98 33 17 22 120
227 264 527 144 298 190 410 175 424 -12 13 -42 4 -73 -21z"/>
</g>
</svg>
